<?xml version="1.0" encoding="UTF-8" standalone="no"?>
<!-- Created with Inkscape (http://www.inkscape.org/) -->

<svg
   xmlns:dc="http://purl.org/dc/elements/1.1/"
   xmlns:cc="http://creativecommons.org/ns#"
   xmlns:rdf="http://www.w3.org/1999/02/22-rdf-syntax-ns#"
   xmlns:svg="http://www.w3.org/2000/svg"
   xmlns="http://www.w3.org/2000/svg"
   xmlns:sodipodi="http://sodipodi.sourceforge.net/DTD/sodipodi-0.dtd"
   xmlns:inkscape="http://www.inkscape.org/namespaces/inkscape"
   width="64px"
   height="64px"
   id="svg3927"
   version="1.1"
   inkscape:version="0.48.2 r9819"
   sodipodi:docname="icons.svg">
  <defs
     id="defs3929" />
  <sodipodi:namedview
     id="base"
     pagecolor="#ffffff"
     bordercolor="#666666"
     borderopacity="1.0"
     inkscape:pageopacity="0.0"
     inkscape:pageshadow="2"
     inkscape:zoom="1.4142136"
     inkscape:cx="-156.09875"
     inkscape:cy="75.499248"
     inkscape:current-layer="layer6"
     showgrid="true"
     inkscape:document-units="px"
     inkscape:grid-bbox="true"
     inkscape:snap-smooth-nodes="false"
     inkscape:object-nodes="true"
     showguides="true"
     inkscape:guide-bbox="true"
     inkscape:snap-page="false"
     inkscape:snap-object-midpoints="false"
     inkscape:window-width="1440"
     inkscape:window-height="771"
     inkscape:window-x="0"
     inkscape:window-y="0"
     inkscape:window-maximized="0"
     inkscape:snap-center="true"
     inkscape:snap-to-guides="true"
     inkscape:snap-grids="false">
    <sodipodi:guide
       orientation="1,0"
       position="10,46.125"
       id="guide4841" />
    <sodipodi:guide
       orientation="0,1"
       position="3.625,10"
       id="guide4843" />
    <sodipodi:guide
       orientation="-0.70710678,0.70710678"
       position="64,64"
       id="guide3933" />
    <sodipodi:guide
       orientation="0.70710678,0.70710678"
       position="0,64"
       id="guide3935" />
    <sodipodi:guide
       orientation="0,1"
       position="15.318182,19.211361"
       id="guide3941" />
    <sodipodi:guide
       orientation="0,1"
       position="15.318182,0.78863834"
       id="guide3943" />
    <sodipodi:guide
       orientation="1,0"
       position="15.318182,19.211361"
       id="guide3945" />
    <sodipodi:guide
       orientation="1,0"
       position="17.310938,19.156166"
       id="guide3947" />
    <sodipodi:guide
       orientation="0,1"
       position="41.055134,-43.10235"
       id="guide3967" />
    <sodipodi:guide
       orientation="0,1"
       position="41.0625,-46.09375"
       id="guide3975" />
  </sodipodi:namedview>
  <metadata
     id="metadata3932">
    <rdf:RDF>
      <cc:Work
         rdf:about="">
        <dc:format>image/svg+xml</dc:format>
        <dc:type
           rdf:resource="http://purl.org/dc/dcmitype/StillImage" />
        <dc:title></dc:title>
      </cc:Work>
    </rdf:RDF>
  </metadata>
  <g
     id="layer1"
     inkscape:label="Layers"
     inkscape:groupmode="layer"
     style="display:none">
    <path
       inkscape:connector-curvature="0"
       id="layers"
       style="fill:#000000;fill-opacity:1;stroke:none"
       d="M 11,41.6875 6.125,44.125 32,57.09375 57.875,44.125 53,41.6875 l -0.34375,0.15625 -2.5,1.25 2.0625,1.03125 L 32,54.25 11.78125,44.125 l 2.0625,-1.03125 -2.5,-1.25 L 11,41.6875 z m 0,-6 L 6.125,38.125 32,51.09375 57.875,38.125 53,35.6875 l -0.34375,0.15625 -2.5,1.25 2.0625,1.03125 L 32,48.25 11.78125,38.125 l 2.0625,-1.03125 -2.5,-1.25 L 11,35.6875 z M 32,21.96875 52.21875,32.125 32,42.25 11.78125,32.125 32,21.96875 z M 32,19.15625 6.125,32.125 32,45.09375 57.875,32.125 32,19.15625 z"
       inkscape:label="#path4761" />
  </g>
  <g
     inkscape:groupmode="layer"
     id="layer2"
     inkscape:label="Floppy"
     style="display:none">
    <path
       inkscape:connector-curvature="0"
       id="floppy_disk"
       style="fill:#000000;stroke:none"
       d="m 13.796588,53.420191 0,0.556929 36.440248,0 0,-0.556929 z m 0,-3.990453 0,0.556928 36.440248,0 0,-0.556928 z m 0,-3.816956 0,0.556928 36.440248,0 0,-0.556928 z m 0,-4.163952 0,0.556929 36.440248,0 0,-0.556929 z m 43.16527,12.638548 0,2.051787 -3.092316,0 0,-2.041898 z m -43.16481,-16.282005 0,0.556928 36.440248,0 0,-0.556928 z m 0,-4.078938 1.75e-4,0.582953 36.440248,0 -1.75e-4,-0.582953 z m -1.924108,-5.133372 40.077404,0 0.441759,0.441726 0,30.341198 -40.970739,0 0,-30.548745 z M 18.527878,4.0234068 c 0,0.1323789 0,0.6987631 0,0.831142 l -6.448779,0 -0.04417,-0.166558 -6.4791399,0 -0.4074011,0.4760784 0,54.3609088 0.4564854,0.451615 c 18.1973686,-0.03279 37.4836446,-8.79e-4 52.8638866,0 l 0.382858,-0.377878 0,-48.431616 -0.37795,-0.378052 0,-1.6147454 0.368133,-0.3681627 0,-0.6528729 -4.132905,-3.4947699 -0.696997,0 -0.333774,0.1963997 -4.393056,0 -0.837457,0 c 0,-0.1323789 0,-0.6987631 0,-0.8311421 C 38.32976,4.023065 27.188311,4.0243089 18.527882,4.0234068 z m 17.023379,3.4266719 c 0,5.0857273 0,10.2575723 0,14.6114793 2.729953,0 5.51074,0 7.848593,0 0,-4.873789 0,-9.747578 0,-14.6213687 -2.740219,-0.00937 -5.493335,0.00451 -7.848593,0.00989 z m -16.43837,-2.8347836 28.743819,0 0,17.5475859 c 0,0.585035 0.02759,0.693992 -0.103075,0.824636 -0.138243,0.138799 -0.41393,0.107569 -0.643005,0.107569 0,0 -24.831333,0.01735 -26.549745,0 -0.84216,0 -1.057854,0.06593 -1.281104,-0.157883 -0.191632,-0.191542 -0.155975,-0.655996 -0.152158,-0.770678 z"
       inkscape:label="#path3979" />
  </g>
  <g
     inkscape:groupmode="layer"
     id="layer3"
     inkscape:label="Path_Curve"
     style="display:none">
    <path
       style="font-size:medium;font-style:normal;font-variant:normal;font-weight:normal;font-stretch:normal;text-indent:0;text-align:start;text-decoration:none;line-height:normal;letter-spacing:normal;word-spacing:normal;text-transform:none;direction:ltr;block-progression:tb;writing-mode:lr-tb;text-anchor:start;baseline-shift:baseline;color:#000000;fill:#000000;fill-opacity:1;stroke:none;stroke-width:3;marker:none;visibility:visible;display:inline;overflow:visible;enable-background:accumulate;font-family:Sans;-inkscape-font-specification:Sans"
       d="M 51,7 51,7.46875 51,8.625 C 40.511313,9.5158395 30.393709,14.982277 22.65625,22.75 14.928096,30.508382 9.5166785,40.621937 8.625,51 L 7.46875,51 7,51 7,51.46875 7,56.53125 7,57 7.46875,57 12.53125,57 13,57 13,56.53125 13,51.46875 13,51 12.53125,51 11.6875,51 C 12.577943,41.561505 17.541669,32.142897 24.78125,24.875 32.025269,17.602648 41.460666,12.583404 51,11.6875 l 0,0.84375 0,0.46875 0.46875,0 5.0625,0 L 57,13 57,12.53125 57,7.46875 57,7 56.53125,7 51.46875,7 51,7 z m 0.9375,0.9375 4.125,0 0,4.125 -4.125,0 0,-4.125 z m -44,44 4.125,0 0,4.125 -4.125,0 0,-4.125 z"
       id="path4831"
       inkscape:connector-curvature="0" />
    <path
       id="path_curve"
       d="M 51,7 51,7.46875 51,8.625 C 40.511313,9.5158395 30.393709,14.982277 22.65625,22.75 14.928096,30.508382 9.5166785,40.621937 8.625,51 L 7.46875,51 7,51 7,51.46875 7,56.53125 7,57 7.46875,57 12.53125,57 13,57 13,56.53125 13,51.46875 13,51 12.53125,51 11.6875,51 C 12.577943,41.561505 17.541669,32.142897 24.78125,24.875 32.025269,17.602648 41.460666,12.583404 51,11.6875 l 0,0.84375 0,0.46875 0.46875,0 5.0625,0 L 57,13 57,12.53125 57,7.46875 57,7 56.53125,7 51.46875,7 51,7 z m 0.9375,0.9375 4.125,0 0,4.125 -4.125,0 0,-4.125 z m -44,44 4.125,0 0,4.125 -4.125,0 0,-4.125 z"
       style="font-size:medium;font-style:normal;font-variant:normal;font-weight:normal;font-stretch:normal;text-indent:0;text-align:start;text-decoration:none;line-height:normal;letter-spacing:normal;word-spacing:normal;text-transform:none;direction:ltr;block-progression:tb;writing-mode:lr-tb;text-anchor:start;baseline-shift:baseline;color:#000000;fill:#000000;fill-opacity:1;stroke:none;stroke-width:3;marker:none;visibility:visible;display:inline;overflow:visible;enable-background:accumulate;font-family:Sans;-inkscape-font-specification:Sans"
       inkscape:connector-curvature="0"
       inkscape:label="#path3089" />
  </g>
  <g
     inkscape:groupmode="layer"
     id="layer4"
     inkscape:label="Path_Line"
     style="display:none">
    <path
       style="font-size:medium;font-style:normal;font-variant:normal;font-weight:normal;font-stretch:normal;text-indent:0;text-align:start;text-decoration:none;line-height:normal;letter-spacing:normal;word-spacing:normal;text-transform:none;direction:ltr;block-progression:tb;writing-mode:lr-tb;text-anchor:start;baseline-shift:baseline;color:#000000;fill:#000000;fill-opacity:1;stroke:none;stroke-width:3;marker:none;visibility:visible;display:inline;overflow:visible;enable-background:accumulate;font-family:Sans;-inkscape-font-specification:Sans"
       d="m 51,7 0,0.46875 0,1.15625 0,2.25 L 10.875,51 7.46875,51 7,51 7,51.46875 7,56.53125 7,57 7.46875,57 12.53125,57 13,57 13,56.53125 13,53.125 53.125,13 56.53125,13 57,13 57,12.53125 57,7.46875 57,7 56.53125,7 51.46875,7 51,7 z m 0.9375,0.9375 4.125,0 0,4.125 -4.125,0 0,-4.125 z m -44,44 4.125,0 0,4.125 -4.125,0 0,-4.125 z"
       id="path_line"
       inkscape:connector-curvature="0"
       inkscape:label="#path3119" />
  </g>
  <g
     inkscape:groupmode="layer"
     id="layer5"
     inkscape:label="Pen"
     style="display:none" />
  <g
     inkscape:groupmode="layer"
     id="layer6"
     inkscape:label="Pencil"
     style="display:none">
    <path
       style="fill:#000000;fill-opacity:1;stroke:none"
       d="M 14.750864,36.198905 9.9778935,54.009157 27.788146,49.236186 14.750864,36.198905 z M 16.209272,34.828885 29.202359,47.821972 55.630475,21.393857 42.637388,8.4007694 16.209272,34.828885 z m 27.84233,-27.8423291 3.535533,3.5355341 6.010408,6.010407 3.49134,3.49134 3.469242,-3.469242 c 0.0076,-0.0075 0.01457,-0.01457 0.0221,-0.0221 1.935285,-1.935285 1.93528,-5.047398 0,-6.982679 l -6.01041,-6.0104057 c -1.935288,-1.9352876 -5.047394,-1.9352855 -6.98268,0 -0.0075,0.00753 -0.01463,0.014531 -0.0221,0.022097 L 47.520845,3.5173133 44.051603,6.986556 z M 20.451913,34.828885 42.637388,12.64341 51.387834,21.393857 29.202359,43.579332 20.451913,34.828885 z M 48.294242,6.9865559 49.244417,6.0363811 a 2.9871444,2.9871444 0 0 0 0.464039,-0.3756504 c 0.803183,-0.8031835 1.936854,-0.803185 2.740039,0 l 6.010407,6.0104073 c 0.803174,0.803174 0.803178,1.936861 0,2.740039 a 2.9871444,2.9871444 0 0 0 -0.0221,0.0221 L 57.088883,15.781196 55.718863,14.411177 49.708456,8.4007694 48.294242,6.9865559 z M 16.29766,41.988342 l 5.701049,5.701048 -7.778175,2.077126 2.077126,-7.778174 z"
       id="pencil"
       inkscape:connector-curvature="0"
       inkscape:transform-center-x="-26.00479"
       inkscape:transform-center-y="-25.982712"
       inkscape:label="#path3931" />
  </g>
</svg>
